<svg width="14" height="14" viewBox="0 0 14 14" fill="none" xmlns="http://www.w3.org/2000/svg">
<path d="M7.02447 0.370941C3.40237 0.370941 0.438843 3.32789 0.438843 6.96974C0.438843 10.2625 2.84918 12.9956 5.99711 13.4895V8.87957H4.32436V6.96974H5.99711V5.51431C5.99711 3.86132 6.97837 2.95251 8.48647 2.95251C9.20431 2.95251 9.95507 3.07763 9.95507 3.07763V4.70428H9.12528C8.30866 4.70428 8.05182 5.21137 8.05182 5.73164V6.96974H9.88263L9.58627 8.87957H8.05182V13.4895C9.60369 13.2444 11.0168 12.4526 12.0361 11.257C13.0553 10.0614 13.6136 8.54083 13.6101 6.96974C13.6101 3.32789 10.6466 0.370941 7.02447 0.370941Z" fill="#52606D"/>
</svg>
