<svg width="14" height="14" viewBox="0 0 14 14" fill="none" xmlns="http://www.w3.org/2000/svg">
<path d="M4.35274 0.344604H9.88467C11.9921 0.344604 13.7043 2.05687 13.7043 4.16427V9.69619C13.7043 10.7092 13.3019 11.6808 12.5856 12.3971C11.8692 13.1134 10.8977 13.5159 9.88467 13.5159H4.35274C2.24534 13.5159 0.533081 11.8036 0.533081 9.69619V4.16427C0.533081 3.15123 0.935509 2.17968 1.65183 1.46336C2.36816 0.747032 3.33971 0.344604 4.35274 0.344604ZM4.22103 1.66173C3.59225 1.66173 2.98922 1.91151 2.5446 2.35613C2.09999 2.80074 1.85021 3.40377 1.85021 4.03255V9.8279C1.85021 11.1384 2.91049 12.1987 4.22103 12.1987H10.0164C10.6452 12.1987 11.2482 11.9489 11.6928 11.5043C12.1374 11.0597 12.3872 10.4567 12.3872 9.8279V4.03255C12.3872 2.72201 11.3269 1.66173 10.0164 1.66173H4.22103ZM10.5762 2.64957C10.7945 2.64957 11.0039 2.7363 11.1582 2.89068C11.3126 3.04506 11.3994 3.25445 11.3994 3.47278C11.3994 3.6911 11.3126 3.90049 11.1582 4.05487C11.0039 4.20925 10.7945 4.29598 10.5762 4.29598C10.3578 4.29598 10.1484 4.20925 9.99406 4.05487C9.83968 3.90049 9.75295 3.6911 9.75295 3.47278C9.75295 3.25445 9.83968 3.04506 9.99406 2.89068C10.1484 2.7363 10.3578 2.64957 10.5762 2.64957ZM7.1187 3.63742C7.99201 3.63742 8.82955 3.98434 9.44707 4.60186C10.0646 5.21938 10.4115 6.05692 10.4115 6.93023C10.4115 7.80354 10.0646 8.64108 9.44707 9.2586C8.82955 9.87612 7.99201 10.223 7.1187 10.223C6.2454 10.223 5.40786 9.87612 4.79033 9.2586C4.17281 8.64108 3.82589 7.80354 3.82589 6.93023C3.82589 6.05692 4.17281 5.21938 4.79033 4.60186C5.40786 3.98434 6.2454 3.63742 7.1187 3.63742ZM7.1187 4.95454C6.59472 4.95454 6.0922 5.16269 5.72168 5.53321C5.35117 5.90372 5.14302 6.40624 5.14302 6.93023C5.14302 7.45421 5.35117 7.95674 5.72168 8.32725C6.0922 8.69776 6.59472 8.90591 7.1187 8.90591C7.64269 8.90591 8.14521 8.69776 8.51573 8.32725C8.88624 7.95674 9.09439 7.45421 9.09439 6.93023C9.09439 6.40624 8.88624 5.90372 8.51573 5.53321C8.14521 5.16269 7.64269 4.95454 7.1187 4.95454Z" fill="#52606D"/>
</svg>
