<svg width="22" height="24" viewBox="0 0 22 24" fill="none" xmlns="http://www.w3.org/2000/svg">
<path d="M12.6048 0.0199997C14.1127 0 15.609 0.00999987 17.1053 0C17.1974 1.52998 17.8305 3.08996 19.1196 4.16995C20.4088 5.27993 22.2274 5.78993 24 5.95993V9.98987C22.3425 9.93987 20.6735 9.63988 19.1657 9.01989C18.5096 8.75989 17.8995 8.42989 17.301 8.0899C17.2895 11.0099 17.3125 13.9298 17.278 16.8398C17.1859 18.2398 16.6564 19.6298 15.7241 20.7797C14.2163 22.6997 11.6034 23.9497 8.92152 23.9897C7.27554 24.0697 5.62957 23.6797 4.22532 22.9597C1.90024 21.7697 0.265775 19.5898 0.0240585 17.2498C0.00103788 16.7498 -0.0104724 16.2498 0.0125482 15.7598C0.219733 13.8598 1.3017 12.0398 2.9822 10.7999C4.89291 9.35988 7.5633 8.66989 10.061 9.07989C10.0841 10.5599 10.015 12.0398 10.015 13.5198C8.87547 13.1998 7.54028 13.2898 6.53889 13.8898C5.81374 14.2998 5.26124 14.9298 4.97349 15.6398C4.73177 16.1498 4.80083 16.7098 4.81234 17.2498C5.08859 18.8898 6.90722 20.2697 8.84094 20.1197C10.1301 20.1097 11.3617 19.4598 12.0293 18.5098C12.248 18.1798 12.4897 17.8398 12.5012 17.4498C12.6163 15.6598 12.5703 13.8798 12.5818 12.0898C12.5933 8.0599 12.5703 4.03995 12.6048 0.0199997V0.0199997Z" fill="#52606D"/>
</svg>
