<svg width="14" height="10" viewBox="0 0 14 10" fill="none" xmlns="http://www.w3.org/2000/svg">
<path d="M5.99018 6.9059L9.40812 4.93022L5.99018 2.95453V6.9059ZM13.6032 1.74936C13.6888 2.05889 13.748 2.47378 13.7876 3.00063C13.8337 3.52748 13.8534 3.98189 13.8534 4.37703L13.8929 4.93022C13.8929 6.37247 13.7876 7.43275 13.6032 8.11107C13.4385 8.70378 13.0566 9.08575 12.4638 9.25039C12.1543 9.336 11.588 9.39527 10.7187 9.43478C9.86252 9.48088 9.07884 9.50064 8.35442 9.50064L7.3073 9.54015C4.54793 9.54015 2.82908 9.43478 2.15076 9.25039C1.55805 9.08575 1.17609 8.70378 1.01145 8.11107C0.925834 7.80155 0.866563 7.38666 0.82705 6.85981C0.78095 6.33296 0.761193 5.87855 0.761193 5.48341L0.72168 4.93022C0.72168 3.48797 0.82705 2.42768 1.01145 1.74936C1.17609 1.15666 1.55805 0.77469 2.15076 0.610049C2.46028 0.524436 3.02665 0.465166 3.89595 0.425652C4.75208 0.379552 5.53577 0.359796 6.26019 0.359796L7.3073 0.320282C10.0667 0.320282 11.7855 0.425652 12.4638 0.610049C13.0566 0.77469 13.4385 1.15666 13.6032 1.74936Z" fill="#52606D"/>
</svg>
