<svg width="102" height="102" viewBox="0 0 102 102" fill="none" xmlns="http://www.w3.org/2000/svg">
<circle cx="50.5776" cy="50.5776" r="50.5776" fill="#69C9D0"/>
<path d="M80.2902 35.9404C79.4154 45.1456 74.3018 55.2582 68.0462 62.2163C59.2838 71.9626 47.7653 77.5197 35.7742 78.766C34.8538 78.8637 34.6282 77.8283 35.6073 77.4596C46.1706 74.0968 56.658 67.4741 64.8915 58.3161C70.4342 52.1511 75.2728 44.1966 78.2496 35.586C78.6912 34.2715 80.3814 34.4496 80.2902 35.9404Z" fill="#F5F7FA"/>
<path d="M30.5505 48.7034C32.4508 46.8031 34.3663 45.7997 36.297 45.6933C38.2125 45.5717 40.0824 46.423 41.9068 48.2473L48.9075 55.2481L45.5782 58.5774L44.0503 57.0496C44.5216 58.8587 43.8451 60.6754 42.0208 62.4997C41.0782 63.4422 40.0977 64.1035 39.0791 64.4836C38.0757 64.8485 37.1104 64.9321 36.183 64.7345C35.2556 64.5368 34.4347 64.0807 33.7202 63.3662C32.58 62.226 32.1087 60.9034 32.3063 59.3984C32.5192 57.8781 33.5226 56.221 35.3165 54.4271L38.1441 51.5995C37.3688 50.8241 36.5403 50.4669 35.6585 50.5277C34.7616 50.5733 33.8418 51.0674 32.8992 52.0099C32.2455 52.6636 31.7058 53.4162 31.2802 54.2675C30.8545 55.0884 30.5961 55.8942 30.5048 56.6847L26.7422 55.4761C26.9399 54.3359 27.3731 53.1729 28.042 51.9871C28.7262 50.7861 29.5623 49.6915 30.5505 48.7034ZM40.5157 59.2159C41.1238 58.6078 41.5267 57.9313 41.7243 57.1864C41.9068 56.4263 41.8231 55.6737 41.4735 54.9288L40.2193 53.6746L37.7793 56.1146C36.3198 57.5741 36.069 58.7827 37.0267 59.7404C37.4828 60.1965 38.0225 60.3865 38.6458 60.3105C39.2691 60.2041 39.8924 59.8392 40.5157 59.2159ZM65.9509 32.7318L68.6873 35.4683L57.7415 46.4141L55.5979 44.2705L54.4578 30.6338L48.3691 36.7225L45.6327 33.986L56.2136 23.405L58.3572 25.5486L59.4974 39.1853L65.9509 32.7318Z" fill="#F5F7FA"/>
</svg>
